<svg width="2254" height="660" viewBox="0 0 2254 660" fill="none" xmlns="http://www.w3.org/2000/svg">
<path d="M86 623H32.5V246.5H86V278.5C103 253.5 128 239.5 158.5 239.5C229 239.5 271.5 292 271.5 379C271.5 469.5 228 519.5 158.5 519.5C128 519.5 103 507 86 482.5V623ZM152 284.5C109 284.5 86 318 86 379C86 440 110 474.5 152 474.5C194 474.5 217 440.5 217 379C217 318.5 193 284.5 152 284.5ZM323.516 513V246.5H377.016V286C394.516 254 422.016 239.5 453.016 239.5C463.516 239.5 473.516 242 478.516 246.5V293.5C470.516 291 461.016 290 450.016 290C399.016 290 377.016 321 377.016 367.5V513H323.516ZM746.539 426C732.039 488 686.039 519.5 623.539 519.5C545.039 519.5 497.039 467 497.039 380C497.039 289.5 545.039 239.5 621.039 239.5C698.039 239.5 744.539 291.5 744.539 377V390H551.539C554.539 444.5 580.039 475 623.539 475C657.539 475 681.539 459 690.539 426H746.539ZM621.039 284C582.539 284 559.539 308.5 553.039 353.5H689.039C682.539 308.5 659.039 284 621.039 284ZM805.125 433.5V288H769.125V246.5H805.125V185H858.625V246.5H916.125V288H858.625V430.5C858.625 461 867.125 475.5 904.625 475.5H915.125V514.5C909.125 517.5 896.625 519.5 881.625 519.5C829.625 519.5 805.125 491 805.125 433.5ZM1067.83 519.5C990.328 519.5 943.328 467 943.328 380C943.328 289.5 991.828 239.5 1067.83 239.5C1145.33 239.5 1192.33 293 1192.33 380C1192.33 470 1143.83 519.5 1067.83 519.5ZM1067.83 474.5C1113.33 474.5 1137.83 441.5 1137.83 380C1137.83 319 1112.83 284.5 1067.83 284.5C1022.83 284.5 997.828 318 997.828 380C997.828 440.5 1022.83 474.5 1067.83 474.5ZM1344.41 519.5C1273.91 519.5 1231.41 467 1231.41 380C1231.41 289.5 1274.91 239.5 1344.41 239.5C1374.91 239.5 1399.91 252 1416.91 276.5V153H1470.41V513H1416.91V480.5C1399.91 505.5 1374.91 519.5 1344.41 519.5ZM1351.41 474.5C1393.91 474.5 1416.91 441.5 1416.91 380C1416.91 319 1392.91 284.5 1351.41 284.5C1308.91 284.5 1285.91 318.5 1285.91 380C1285.91 440.5 1309.91 474.5 1351.41 474.5ZM1771.44 426C1756.94 488 1710.94 519.5 1648.44 519.5C1569.94 519.5 1521.94 467 1521.94 380C1521.94 289.5 1569.94 239.5 1645.94 239.5C1722.94 239.5 1769.44 291.5 1769.44 377V390H1576.44C1579.44 444.5 1604.94 475 1648.44 475C1682.44 475 1706.44 459 1715.44 426H1771.44ZM1645.94 284C1607.44 284 1584.44 308.5 1577.94 353.5H1713.94C1707.44 308.5 1683.94 284 1645.94 284ZM1884.67 513L1786.67 246.5H1844.17L1912.67 444.5L1919.17 470L1925.67 444.5L1993.67 246.5H2048.17L1950.17 513H1884.67Z" fill="#47302B"/>
<path d="M2093.2 183.7C2093.2 177.85 2098 172.9 2103.7 172.9C2109.55 172.9 2114.35 177.85 2114.35 183.7C2114.35 189.4 2109.55 194.35 2103.7 194.35C2098 194.35 2093.2 189.4 2093.2 183.7ZM2131.6 205.314C2154.55 205.314 2170.45 219.864 2170.45 241.314C2170.45 259.764 2159.95 272.664 2143.6 275.214V261.114C2152.9 258.714 2157.85 251.214 2157.85 241.764C2157.85 228.414 2147.65 219.264 2131.75 219.264C2116 219.264 2105.8 227.814 2105.8 241.164C2105.8 251.214 2111.05 258.714 2119.75 261.264V275.364C2103.85 272.514 2093.2 258.864 2093.2 241.164C2093.2 219.564 2108.5 205.314 2131.6 205.314ZM2131.75 285.441C2154.4 285.441 2170.3 301.641 2170.3 323.691C2170.3 345.591 2154.4 361.791 2131.75 361.791C2109.1 361.791 2093.2 345.591 2093.2 323.691C2093.2 301.641 2109.1 285.441 2131.75 285.441ZM2131.75 299.691C2116.45 299.691 2105.8 309.441 2105.8 323.691C2105.8 337.791 2116.45 347.691 2131.75 347.691C2147.05 347.691 2157.7 337.791 2157.7 323.691C2157.7 309.441 2147.05 299.691 2131.75 299.691ZM2095 391.499V377.399H2168.35V389.999L2158.75 391.349C2165.65 395.099 2170.45 402.899 2170.45 413.249C2170.45 424.649 2164.75 432.749 2155.6 436.499C2164.75 439.949 2170.45 448.799 2170.45 460.199C2170.45 476.999 2159.95 487.199 2143 487.199H2095V473.399H2139.55C2151.1 473.399 2157.7 466.949 2157.7 457.049C2157.7 446.399 2150.2 439.349 2138.5 439.349H2095V425.399H2139.7C2151.25 425.399 2157.55 419.099 2157.55 409.199C2157.55 398.549 2150.2 391.499 2138.5 391.499H2095Z" fill="#47302B"/>
</svg>
